<svg width="16" height="16" viewBox="0 0 16 16" fill="none" xmlns="http://www.w3.org/2000/svg">
<path d="M15.2885 7.16917C15.2292 7.01607 15.1402 6.8762 15.0266 6.75759L8.7906 0.521577C8.67432 0.40529 8.53626 0.313046 8.38433 0.250112C8.23239 0.187177 8.06954 0.154785 7.90509 0.154785C7.57296 0.154785 7.25443 0.286724 7.01958 0.521577C6.90329 0.637864 6.81104 0.775918 6.74811 0.927854C6.68518 1.07979 6.65278 1.24264 6.65278 1.40709C6.65278 1.73922 6.78472 2.05775 7.01958 2.2926L11.1353 6.3959H1.66908C1.3383 6.3959 1.02107 6.5273 0.787172 6.7612C0.553277 6.99509 0.421875 7.31232 0.421875 7.6431C0.421875 7.97388 0.553277 8.29111 0.787172 8.52501C1.02107 8.7589 1.3383 8.89031 1.66908 8.89031H11.1353L7.01958 12.9936C6.90268 13.1095 6.80989 13.2475 6.74657 13.3995C6.68326 13.5515 6.65066 13.7145 6.65066 13.8791C6.65066 14.0438 6.68326 14.2068 6.74657 14.3588C6.80989 14.5107 6.90268 14.6487 7.01958 14.7646C7.13552 14.8815 7.27346 14.9743 7.42544 15.0376C7.57743 15.1009 7.74044 15.1335 7.90509 15.1335C8.06973 15.1335 8.23275 15.1009 8.38473 15.0376C8.53672 14.9743 8.67466 14.8815 8.7906 14.7646L15.0266 8.52862C15.1402 8.41 15.2292 8.27014 15.2885 8.11704C15.4133 7.81339 15.4133 7.47281 15.2885 7.16917Z" fill="white"/>
</svg>
