<svg width="49" height="49" viewBox="0 0 49 49" fill="none" xmlns="http://www.w3.org/2000/svg">
<circle cx="24.2266" cy="24.8756" r="24" fill="#56BBF1"/>
<path d="M26.2273 33.8756H22.2273M30.2273 20.8756C30.2273 19.2843 29.5952 17.7582 28.47 16.633C27.3447 15.5078 25.8186 14.8756 24.2273 14.8756C22.636 14.8756 21.1099 15.5078 19.9847 16.633C18.8595 17.7582 18.2273 19.2843 18.2273 20.8756C18.2273 23.9658 17.4478 26.0816 16.577 27.481C15.8424 28.6615 15.4752 29.2517 15.4886 29.4164C15.5035 29.5987 15.5422 29.6682 15.6891 29.7772C15.8218 29.8756 16.4199 29.8756 17.6162 29.8756H30.8385C32.0347 29.8756 32.6329 29.8756 32.7655 29.7772C32.9125 29.6682 32.9511 29.5987 32.966 29.4164C32.9795 29.2517 32.6122 28.6615 31.8776 27.481C31.0068 26.0816 30.2273 23.9658 30.2273 20.8756Z" stroke="white" stroke-width="2" stroke-linecap="round" stroke-linejoin="round"/>
</svg>
