<svg width="960" height="926" viewBox="0 0 960 926" fill="none" xmlns="http://www.w3.org/2000/svg">
<path opacity="0.563035" fill-rule="evenodd" clip-rule="evenodd" d="M0.00327814 -24.9628H1012.81V852.42C1012.81 852.42 1060.14 1029.91 832.193 778.447C604.245 526.98 352.396 740.124 221.747 626.944C91.0981 513.765 505.618 83.9664 357.602 2.93982C209.586 -78.0867 0.00327814 -24.9628 0.00327814 -24.9628Z" fill="#C3EBFE"/>
<path fill-rule="evenodd" clip-rule="evenodd" d="M92.0039 -0.460598H965.789L965.804 833.106C965.804 833.106 1036.96 1000.15 825.296 745.665C613.629 491.183 396.025 651.559 283.31 555.106C170.594 458.652 523.631 89.865 395.932 20.8128C268.234 -48.2394 92.0039 -0.460598 92.0039 -0.460598Z" fill="url(#paint0_linear_121_292)"/>
<g opacity="0.240676">
<ellipse cx="662.142" cy="331.564" rx="14.7744" ry="14.4729" stroke="white" stroke-width="4.82431"/>
<ellipse cx="523.442" cy="186.835" rx="14.7744" ry="14.4729" stroke="white" stroke-width="4.82431"/>
<ellipse cx="834.008" cy="26.8453" rx="23.82" ry="23.3339" stroke="white" stroke-width="4.82431"/>
<ellipse cx="445.049" cy="349.779" rx="8.74406" ry="8.56561" stroke="white" stroke-width="4.82431"/>
<rect x="696.995" y="178.349" width="43.4188" height="43.4188" transform="rotate(-23 696.995 178.349)" stroke="white" stroke-width="4.82431"/>
<rect x="501.714" y="529.888" width="25.3276" height="25.3276" transform="rotate(-23 681.714 529.888)" stroke="white" stroke-width="4.82431"/>
<rect x="526.804" y="424.536" width="13.2668" height="13.2668" transform="rotate(-23 526.804 424.536)" stroke="white" stroke-width="4.82431"/>
<path d="M362.652 252.72L361.091 246.895L362.192 246.6L363.753 252.425L369.551 250.871L369.846 251.972L364.048 253.525L365.601 259.324L364.501 259.619L362.947 253.82L357.122 255.381L356.827 254.281L362.652 252.72Z" fill="white"/>
<path d="M694.32 481.874L692.759 476.049L693.86 475.755L695.421 481.58L701.219 480.026L701.514 481.126L695.716 482.68L697.269 488.478L696.169 488.773L694.615 482.975L688.79 484.536L688.495 483.435L694.32 481.874Z" fill="white"/>
<path d="M530.879 312.664L527.889 301.505L529.997 300.941L532.987 312.099L544.094 309.123L544.659 311.231L533.552 314.207L536.528 325.314L534.42 325.879L531.444 314.772L520.286 317.762L519.721 315.654L530.879 312.664Z" fill="white"/>
<path d="M419.004 20.0103L415.3 6.18524L417.912 5.48533L421.616 19.3104L435.378 15.623L436.078 18.2351L422.316 21.9225L426.004 35.6838L423.391 36.3837L419.704 22.6224L405.879 26.3268L405.179 23.7147L419.004 20.0103Z" fill="white"/>
<path d="M867.333 305.914L861.485 284.089L865.608 282.984L871.456 304.809L893.181 298.988L894.286 303.111L872.561 308.933L878.382 330.657L874.259 331.762L868.438 310.037L846.613 315.885L845.508 311.762L867.333 305.914Z" fill="white"/>
</g>
<defs>
<linearGradient id="paint0_linear_121_292" x1="987.922" y1="-1286.35" x2="-256.344" y2="-102.492" gradientUnits="userSpaceOnUse">
<stop stop-color="#F5F5F5"/>
<stop offset="1" stop-color="#56BBF1"/>
</linearGradient>
</defs>
</svg>
