<svg width="200" height="200" viewBox="0 0 237 241" fill="none" xmlns="http://www.w3.org/2000/svg">
<path opacity="0.563035" fill-rule="evenodd" clip-rule="evenodd" d="M0.00476775 -9.47138H266.173V221.106C266.173 221.106 278.611 267.752 218.706 201.666C158.8 135.58 92.6142 191.595 58.2794 161.851C23.9446 132.107 132.881 19.1554 93.9822 -2.13854C55.0834 -23.4324 0.00476775 -9.47138 0.00476775 -9.47138Z" fill="#C3EBFE"/>
<path fill-rule="evenodd" clip-rule="evenodd" d="M24.1843 -3.03234H253.816L253.82 216.03C253.82 216.03 272.521 259.929 216.895 193.051C161.268 126.172 104.082 168.319 74.4598 142.971C44.8381 117.623 137.617 20.7054 104.057 2.55834C70.4979 -15.5887 24.1843 -3.03234 24.1843 -3.03234Z" fill="url(#paint0_linear_243_563)"/>
<g opacity="0.240676">
<ellipse cx="174.019" cy="84.2246" rx="3.88275" ry="3.80351" stroke="white" stroke-width="1.26784"/>
<ellipse cx="137.566" cy="46.1895" rx="3.88275" ry="3.80351" stroke="white" stroke-width="1.26784"/>
<ellipse cx="219.186" cy="4.14421" rx="6.25994" ry="6.13219" stroke="white" stroke-width="1.26784"/>
<ellipse cx="116.966" cy="89.0115" rx="2.29795" ry="2.25106" stroke="white" stroke-width="1.26784"/>
<rect x="183.175" y="43.9595" width="11.4105" height="11.4105" transform="rotate(-23 183.175 43.9595)" stroke="white" stroke-width="1.26784"/>
<rect x="179.159" y="136.345" width="6.65614" height="6.65614" transform="rotate(-23 179.159 136.345)" stroke="white" stroke-width="1.26784"/>
<rect x="138.452" y="108.658" width="3.48655" height="3.48655" transform="rotate(-23 138.452 108.658)" stroke="white" stroke-width="1.26784"/>
<path d="M95.3107 63.5042L94.9005 61.9734L95.1897 61.8959L95.5999 63.4267L97.1237 63.0184L97.2012 63.3076L95.6774 63.7159L96.0857 65.2397L95.7964 65.3172L95.3882 63.7934L93.8573 64.2036L93.7798 63.9144L95.3107 63.5042Z" fill="white"/>
<path d="M182.475 123.726L182.065 122.195L182.354 122.118L182.764 123.649L184.288 123.24L184.365 123.53L182.841 123.938L183.25 125.462L182.961 125.539L182.552 124.015L181.021 124.426L180.944 124.136L182.475 123.726Z" fill="white"/>
<path d="M139.517 79.2577L138.732 76.3253L139.286 76.1768L140.072 79.1092L142.99 78.3271L143.139 78.8812L140.22 79.6633L141.002 82.5822L140.448 82.7307L139.666 79.8118L136.734 80.5975L136.585 80.0434L139.517 79.2577Z" fill="white"/>
<path d="M110.121 2.34791L109.147 -1.28533L109.834 -1.46927L110.807 2.16397L114.424 1.19493L114.608 1.8814L110.991 2.85044L111.96 6.46694L111.274 6.65088L110.305 3.03438L106.672 4.0079L106.488 3.32144L110.121 2.34791Z" fill="white"/>
<path d="M227.939 77.4838L226.402 71.7481L227.486 71.4577L229.023 77.1934L234.732 75.6636L235.022 76.7473L229.313 78.2771L230.843 83.9863L229.759 84.2767L228.229 78.5675L222.494 80.1043L222.203 79.0206L227.939 77.4838Z" fill="white"/>
</g>
<defs>
<linearGradient id="paint0_linear_243_563" x1="259.633" y1="-340.965" x2="-67.3616" y2="-29.8464" gradientUnits="userSpaceOnUse">
<stop stop-color="#F5F5F5"/>
<stop offset="1" stop-color="#56BBF1"/>
</linearGradient>
</defs>
</svg>
