<svg width="30" height="30" viewBox="0 0 30 30" fill="none" xmlns="http://www.w3.org/2000/svg">
  <circle cx="15" cy="15" r="14.2045" fill="#56BBF1"/>
  <path d="M19.1 7.8H10.9C9.3 7.8 8 9.1 8 10.7V19.1C8 20.7 9.3 22 10.9 22H19.1C20.7 22 22 20.7 22 19.1V10.7C22 9.1 20.7 7.8 19.1 7.8ZM15 18.3C13.2 18.3 11.7 16.8 11.7 15C11.7 13.2 13.2 11.7 15 11.7C16.8 11.7 18.3 13.2 18.3 15C18.3 16.8 16.8 18.3 15 18.3ZM19.4 11.2C18.9 11.2 18.5 10.8 18.5 10.3C18.5 9.8 18.9 9.4 19.4 9.4C19.9 9.4 20.3 9.8 20.3 10.3C20.3 10.8 19.9 11.2 19.4 11.2Z" fill="white"/>
  <path d="M15 10.2C13.3 10.2 11.9 11.6 11.9 13.3C11.9 15 13.3 16.4 15 16.4C16.7 16.4 18.1 15 18.1 13.3C18.1 11.6 16.7 10.2 15 10.2Z" fill="white"/>
</svg>
