<svg width="160" height="75" viewBox="0 0 160 75" fill="none" xmlns="http://www.w3.org/2000/svg">
<path d="M11.031 65.485C10.5457 65.485 10.192 65.3667 9.94931 65.1301C9.71675 64.8925 9.51444 64.6154 9.35267 64.2605L0.0809669 41.6958C7.89939e-05 41.5765 0 41.4188 0 41.2611C0 40.984 0.121391 40.708 0.3135 40.5098C0.51572 40.3126 0.798867 40.1943 1.11231 40.1943H6.64299C7.08788 40.1943 7.40131 40.3126 7.64397 40.5492C7.87652 40.7868 7.99779 41.0234 8.07867 41.2216L13.6094 56.1586L29.6556 22.2129C29.7365 21.9763 29.8578 21.7782 30.0903 21.5416C30.333 21.304 30.6464 21.1857 31.0913 21.1857H36.622C36.895 21.1857 37.1781 21.304 37.4208 21.5021C37.6534 21.6993 37.7748 21.9763 37.7748 22.2524C37.7748 22.4111 37.7343 22.5688 37.6938 22.6871L17.9571 64.2999C17.8358 64.6154 17.6335 64.8925 17.3909 65.1695C17.1583 65.4061 16.754 65.5244 16.2383 65.5244H11.031V65.485Z" fill="#56BBF1"/>
<path d="M38.6554 36.5188C38.2914 36.5188 38.0185 36.3995 37.7759 36.1629C37.5332 35.9657 37.4219 35.6493 37.4219 35.2934V30.9467C37.4219 30.5907 37.5332 30.2743 37.7759 30.0377C38.0185 29.8001 38.2914 29.6818 38.6554 29.6818H44.4996C44.8636 29.6818 45.1769 29.8001 45.4196 30.0377C45.6622 30.2743 45.7736 30.5907 45.7736 30.9467V35.2934C45.7736 35.6493 45.6622 35.9253 45.4196 36.1629C45.1769 36.3995 44.8636 36.5188 44.4996 36.5188H38.6554ZM38.6959 65.4848C38.3319 65.4848 38.0588 65.3665 37.8161 65.1299C37.5734 64.8923 37.4624 64.6152 37.4624 64.2604V41.3792C37.4624 41.0233 37.5734 40.7472 37.8161 40.5096C38.0588 40.273 38.3319 40.1537 38.6959 40.1537H44.4591C44.7826 40.1537 45.0659 40.273 45.3389 40.5096C45.5815 40.7472 45.6926 41.0233 45.6926 41.3792V64.2604C45.6926 64.6152 45.5815 64.8923 45.3389 65.1299C45.0962 65.3665 44.8231 65.4848 44.4591 65.4848H38.6959Z" fill="#56BBF1"/>
<path d="M59.1076 65.9985C57.3584 65.9985 55.7711 65.6831 54.3758 65.0107C52.9804 64.3393 51.8682 63.4304 51.0694 62.3242C50.2302 61.1777 49.8359 59.9127 49.8359 58.4901C49.8359 56.199 50.7864 54.3416 52.6569 52.9978C54.5679 51.6541 57.0754 50.7451 60.2199 50.2315L66.3571 49.3225V48.6107C66.3571 47.4257 66.1145 46.5561 65.6393 45.9242C65.1641 45.2913 64.2441 45.0152 62.9296 45.0152C62.0196 45.0152 61.2614 45.2124 60.7053 45.5683C60.1492 45.9242 59.6637 46.3984 59.3503 47.0303C59.0672 47.4651 58.6324 47.6623 58.1168 47.6623H52.6165C52.2626 47.6623 51.9895 47.544 51.7873 47.3468C51.5851 47.1486 51.5042 46.8726 51.5446 46.5956C51.5446 46.0031 51.7872 45.3307 52.222 44.5804C52.6568 43.8292 53.3342 43.079 54.2543 42.3277C55.1643 41.5765 56.3675 40.9445 57.7932 40.4703C59.2289 39.9961 60.9783 39.7595 63.0106 39.7595C65.1238 39.7595 66.9538 39.9961 68.4603 40.4703C69.977 40.9445 71.1702 41.6564 72.1307 42.5249C73.0407 43.3944 73.7584 44.4217 74.1932 45.6077C74.638 46.7937 74.8708 48.0971 74.8708 49.5197V64.3393C74.8708 64.6953 74.7493 64.9713 74.5168 65.2089C74.2741 65.4455 74.0013 65.5638 73.6373 65.5638H67.9446C67.5908 65.5638 67.3078 65.4455 67.0752 65.2089C66.8326 64.9713 66.7111 64.6953 66.7111 64.3393V62.6397C66.2764 63.2726 65.7203 63.8257 65.0024 64.3393C64.2845 64.853 63.4454 65.2878 62.4949 65.5638C61.4939 65.8408 60.3816 65.9985 59.1076 65.9985ZM61.4231 60.4274C62.3735 60.4274 63.2128 60.2292 64.0014 59.8339C64.7598 59.4386 65.3968 58.8066 65.8417 57.9371C66.2765 57.0675 66.509 56.0008 66.509 54.6965V54.0251L62.333 54.7359C60.786 55.013 59.6639 55.4083 58.9864 55.922C58.2787 56.475 57.9551 57.0675 57.9551 57.7793C57.9551 58.3324 58.1168 58.8066 58.4303 59.202C58.7538 59.5973 59.1886 59.8733 59.7043 60.1109C60.1795 60.3081 60.7457 60.4274 61.4231 60.4274Z" fill="#56BBF1"/>
<path d="M76.1476 74.7717C75.7937 74.7717 75.5105 74.6534 75.2779 74.4158C75.0353 74.1792 74.9141 73.9022 74.9141 73.5463V69.5949C74.9141 69.239 75.0353 68.963 75.2779 68.7254C75.5105 68.4888 75.7937 68.3695 76.1476 68.3695H77.9777C78.8169 68.3695 79.4133 68.2117 79.8481 67.8953C80.293 67.5798 80.5661 67.1845 80.7279 66.6314C80.8897 66.0783 80.9705 65.4848 80.9705 64.8134V41.3792C80.9705 41.0233 81.0816 40.7472 81.3243 40.5096C81.5669 40.273 81.8401 40.1537 82.204 40.1537H88.2909C88.6448 40.1537 88.9278 40.273 89.1704 40.5096C89.403 40.7472 89.5244 41.0233 89.5244 41.3792V65.0106C89.5244 67.1056 89.1301 68.8831 88.2909 70.3462C87.4517 71.8082 86.2585 72.8749 84.6711 73.6262C83.114 74.3764 81.1626 74.7323 78.9382 74.7323H76.1476V74.7717ZM82.1231 36.5188C81.7995 36.5188 81.5267 36.3995 81.2436 36.1629C81.0009 35.9253 80.8896 35.6493 80.8896 35.2934V30.9467C80.8896 30.5907 81.0009 30.2743 81.2436 30.0377C81.4862 29.8001 81.7591 29.6818 82.1231 29.6818H88.2909C88.6043 29.6818 88.8873 29.8001 89.1704 30.0377C89.4434 30.2743 89.5244 30.5907 89.5244 30.9467V35.2934C89.5244 35.6493 89.403 35.9253 89.1704 36.1629C88.9278 36.3995 88.6448 36.5188 88.2909 36.5188H82.1231Z" fill="#56BBF1"/>
<path d="M93.8595 65.4848C93.5865 65.4848 93.3438 65.3666 93.1416 65.1694C92.9495 64.9712 92.8281 64.7346 92.8281 64.4576C92.8281 64.2998 92.8282 64.1411 92.8686 64.0228L104.405 32.7647C104.486 32.4088 104.729 32.0923 105.002 31.8163C105.325 31.5392 105.76 31.4209 106.316 31.4209H113.566C114.122 31.4209 114.557 31.5787 114.88 31.8163C115.194 32.0923 115.396 32.4088 115.477 32.7647L126.983 64.0228C127.054 64.1411 127.054 64.2998 127.054 64.4576C127.054 64.7346 126.943 64.9712 126.74 65.1694C126.538 65.3666 126.265 65.4848 125.982 65.4848H119.936C119.45 65.4848 119.056 65.3666 118.813 65.1289C118.581 64.8923 118.419 64.6547 118.338 64.4576L116.427 59.4779H103.333L101.463 64.4576C101.382 64.6547 101.261 64.8529 101.028 65.1289C100.785 65.3666 100.391 65.4848 99.835 65.4848H93.8595ZM105.366 52.4841H114.476L109.865 39.6401L105.366 52.4841Z" fill="#56BBF1"/>
<path d="M132.151 65.485C131.798 65.485 131.515 65.3667 131.282 65.1291C131.039 64.8925 130.918 64.6154 130.918 64.2605V32.606C130.918 32.2511 131.039 31.9741 131.282 31.7365C131.515 31.4999 131.798 31.3816 132.151 31.3816H145.488C149.704 31.3816 153.051 32.33 155.478 34.2663C157.904 36.2025 159.138 38.9295 159.138 42.4855C159.138 44.7777 158.582 46.7533 157.429 48.3347C156.317 49.915 154.8 51.1405 152.97 51.9302L159.744 63.9046C159.815 64.1018 159.896 64.2605 159.896 64.4577C159.896 64.7347 159.775 64.9713 159.583 65.1695C159.381 65.3667 159.108 65.485 158.824 65.485H152.333C151.696 65.485 151.261 65.3272 150.938 65.0108C150.665 64.6953 150.422 64.4183 150.311 64.1412L144.689 53.4327H139.714V64.2605C139.714 64.6154 139.593 64.8925 139.361 65.1291C139.118 65.3667 138.845 65.485 138.481 65.485H132.151ZM139.714 46.5956H145.407C146.964 46.5956 148.117 46.2397 148.875 45.4895C149.633 44.7382 150.028 43.711 150.028 42.4066C150.028 41.1418 149.674 40.1145 148.916 39.3248C148.198 38.5341 147.005 38.1388 145.407 38.1388H139.714V46.5956Z" fill="#56BBF1"/>
<path d="M15.5232 0.00408844C9.8307 -0.153643 5.09875 4.27194 4.89653 9.92297C4.73475 15.574 14.4514 34.2662 14.4514 34.2662C14.4514 34.2662 25.3206 16.207 25.5229 10.5549C25.6745 4.90387 21.2157 0.201253 15.5232 0.00408844ZM15.1287 13.2424C12.5808 13.1635 10.6294 11.0696 10.6699 8.53981C10.7508 6.01105 12.8639 4.07478 15.4119 4.11421C17.9194 4.23251 19.9013 6.32751 19.8305 8.85627C19.7496 11.3456 17.6363 13.3213 15.1287 13.2424Z" fill="#56BBF1"/>
<path d="M14.3288 39.7594C15.3905 39.7594 16.24 38.9101 16.24 37.8626C16.24 36.8141 15.3905 35.9658 14.3288 35.9658C13.2773 35.9658 12.418 36.8141 12.418 37.8626C12.418 38.9101 13.2773 39.7594 14.3288 39.7594Z" fill="#56BBF1"/>
</svg>
