<svg width="292" height="137" viewBox="0 0 292 137" fill="none" xmlns="http://www.w3.org/2000/svg">
<path d="M20.5523 120.066C19.669 120.066 19.0253 119.851 18.5837 119.42C18.1604 118.988 17.7922 118.484 17.4978 117.838L0.623917 76.7715C0.476706 76.5544 0.476562 76.2673 0.476562 75.9803C0.476562 75.4761 0.697487 74.9737 1.04711 74.613C1.41514 74.2542 1.93045 74.0389 2.50089 74.0389H12.5664C13.376 74.0389 13.9465 74.2542 14.3881 74.6848C14.8113 75.1172 15.032 75.5478 15.1792 75.9085L25.2447 103.093L54.4479 41.3139C54.5951 40.8833 54.8158 40.5226 55.239 40.092C55.6807 39.6596 56.2511 39.4443 57.0607 39.4443H67.1262C67.6231 39.4443 68.1384 39.6596 68.58 40.0203C69.0032 40.3791 69.2242 40.8833 69.2242 41.3857C69.2242 41.6746 69.1505 41.9616 69.0769 42.1769L33.1574 117.91C32.9366 118.484 32.5684 118.988 32.1268 119.492C31.7036 119.923 30.9677 120.138 30.0293 120.138H20.5523V120.066Z" fill="white"/>
<path d="M70.8308 67.3498C70.1684 67.3498 69.6718 67.1326 69.2302 66.702C68.7885 66.3432 68.5859 65.7673 68.5859 65.1195V57.2088C68.5859 56.561 68.7885 55.9851 69.2302 55.5545C69.6718 55.1221 70.1684 54.9067 70.8308 54.9067H81.4669C82.1293 54.9067 82.6996 55.1221 83.1412 55.5545C83.5829 55.9851 83.7855 56.561 83.7855 57.2088V65.1195C83.7855 65.7673 83.5829 66.2696 83.1412 66.702C82.6996 67.1326 82.1293 67.3498 81.4669 67.3498H70.8308ZM70.9045 120.066C70.2421 120.066 69.745 119.851 69.3034 119.42C68.8618 118.988 68.6596 118.483 68.6596 117.838V76.1953C68.6596 75.5475 68.8618 75.0452 69.3034 74.6128C69.745 74.1822 70.2421 73.9651 70.9045 73.9651H81.3932C81.9821 73.9651 82.4975 74.1822 82.9943 74.6128C83.436 75.0452 83.6381 75.5475 83.6381 76.1953V117.838C83.6381 118.483 83.436 118.988 82.9943 119.42C82.5527 119.851 82.0557 120.066 81.3932 120.066H70.9045Z" fill="white"/>
<path d="M108.05 121.001C104.866 121.001 101.977 120.427 99.438 119.203C96.8986 117.981 94.8744 116.327 93.4207 114.314C91.8934 112.227 91.1758 109.925 91.1758 107.336C91.1758 103.166 92.9056 99.786 96.3098 97.3404C99.7877 94.8949 104.351 93.2406 110.074 92.3058L121.243 90.6516V89.3561C121.243 87.1995 120.802 85.617 119.937 84.4669C119.072 83.315 117.398 82.8126 115.005 82.8126C113.349 82.8126 111.969 83.1714 110.957 83.8191C109.945 84.4669 109.062 85.3299 108.491 86.48C107.976 87.2713 107.185 87.6301 106.246 87.6301H96.2362C95.5921 87.6301 95.0951 87.4148 94.7271 87.0559C94.3591 86.6953 94.2119 86.1929 94.2855 85.6887C94.2855 84.6104 94.727 83.3867 95.5183 82.0213C96.3095 80.6541 97.5424 79.2887 99.2169 77.9215C100.873 76.5543 103.063 75.4042 105.657 74.5412C108.27 73.6782 111.454 73.2476 115.153 73.2476C118.999 73.2476 122.329 73.6782 125.071 74.5412C127.831 75.4042 130.003 76.6997 131.751 78.2804C133.407 79.8629 134.713 81.7324 135.504 83.8909C136.314 86.0494 136.738 88.4213 136.738 91.0104V117.981C136.738 118.629 136.517 119.131 136.093 119.564C135.652 119.994 135.155 120.21 134.493 120.21H124.132C123.488 120.21 122.973 119.994 122.55 119.564C122.109 119.131 121.888 118.629 121.888 117.981V114.888C121.096 116.04 120.084 117.046 118.778 117.981C117.471 118.916 115.944 119.707 114.214 120.21C112.393 120.714 110.368 121.001 108.05 121.001ZM112.264 110.862C113.993 110.862 115.521 110.501 116.956 109.782C118.336 109.062 119.496 107.912 120.305 106.33C121.097 104.747 121.52 102.806 121.52 100.432V99.21L113.92 100.504C111.104 101.008 109.062 101.727 107.829 102.662C106.541 103.669 105.952 104.747 105.952 106.042C105.952 107.049 106.246 107.912 106.817 108.632C107.406 109.351 108.197 109.853 109.136 110.286C110 110.645 111.031 110.862 112.264 110.862Z" fill="white"/>
<path d="M139.057 136.968C138.413 136.968 137.898 136.752 137.475 136.32C137.033 135.889 136.812 135.385 136.812 134.737V127.546C136.812 126.898 137.033 126.396 137.475 125.964C137.898 125.533 138.413 125.316 139.057 125.316H142.388C143.915 125.316 145.001 125.029 145.792 124.453C146.602 123.879 147.099 123.159 147.393 122.153C147.688 121.146 147.835 120.066 147.835 118.844V76.1953C147.835 75.5475 148.037 75.0452 148.479 74.6128C148.92 74.1822 149.417 73.9651 150.08 73.9651H161.157C161.802 73.9651 162.317 74.1822 162.758 74.6128C163.181 75.0452 163.402 75.5475 163.402 76.1953V119.203C163.402 123.016 162.685 126.251 161.157 128.913C159.63 131.574 157.459 133.516 154.57 134.883C151.736 136.248 148.185 136.896 144.136 136.896H139.057V136.968ZM149.932 67.3498C149.344 67.3498 148.847 67.1326 148.332 66.702C147.89 66.2696 147.688 65.7673 147.688 65.1195V57.2088C147.688 56.561 147.89 55.9851 148.332 55.5545C148.773 55.1221 149.27 54.9067 149.932 54.9067H161.157C161.728 54.9067 162.243 55.1221 162.758 55.5545C163.255 55.9851 163.402 56.561 163.402 57.2088V65.1195C163.402 65.7673 163.181 66.2696 162.758 66.702C162.317 67.1326 161.802 67.3498 161.157 67.3498H149.932Z" fill="white"/>
<path d="M171.295 120.065C170.798 120.065 170.357 119.85 169.989 119.491C169.639 119.131 169.418 118.7 169.418 118.196C169.418 117.909 169.418 117.62 169.492 117.405L190.487 60.5168C190.635 59.8691 191.076 59.2932 191.573 58.7908C192.162 58.2866 192.953 58.0713 193.965 58.0713H207.159C208.171 58.0713 208.963 58.3584 209.551 58.7908C210.122 59.2932 210.49 59.8691 210.637 60.5168L231.578 117.405C231.707 117.62 231.706 117.909 231.706 118.196C231.706 118.7 231.504 119.131 231.136 119.491C230.768 119.85 230.271 120.065 229.756 120.065H218.752C217.869 120.065 217.151 119.85 216.709 119.418C216.286 118.987 215.992 118.555 215.845 118.196L212.366 109.133H188.537L185.133 118.196C184.986 118.555 184.764 118.915 184.341 119.418C183.9 119.85 183.182 120.065 182.17 120.065H171.295ZM192.235 96.405H208.815L200.424 73.0297L192.235 96.405Z" fill="white"/>
<path d="M240.983 120.066C240.339 120.066 239.824 119.851 239.401 119.419C238.959 118.988 238.738 118.484 238.738 117.838V60.2289C238.738 59.583 238.959 59.0788 239.401 58.6464C239.824 58.2158 240.339 58.0005 240.983 58.0005H265.254C272.928 58.0005 279.019 59.7266 283.435 63.2504C287.852 66.7743 290.096 71.7371 290.096 78.2089C290.096 82.3805 289.084 85.9761 286.987 88.854C284.962 91.7302 282.202 93.9604 278.872 95.3976L291.201 117.19C291.329 117.549 291.476 117.838 291.476 118.197C291.476 118.701 291.256 119.132 290.906 119.492C290.538 119.851 290.041 120.066 289.526 120.066H277.712C276.553 120.066 275.762 119.779 275.173 119.203C274.676 118.629 274.234 118.125 274.032 117.621L263.801 98.132H254.747V117.838C254.747 118.484 254.527 118.988 254.104 119.419C253.662 119.851 253.165 120.066 252.502 120.066H240.983ZM254.747 85.6891H265.108C267.941 85.6891 270.039 85.0413 271.419 83.6759C272.799 82.3087 273.517 80.4391 273.517 78.0654C273.517 75.7634 272.873 73.8938 271.493 72.4566C270.186 71.0176 268.015 70.2981 265.108 70.2981H254.747V85.6891Z" fill="white"/>
<path d="M28.7263 0.895136C18.3663 0.608075 9.75448 8.66234 9.38645 18.9469C9.09203 29.2314 26.7756 63.25 26.7756 63.25C26.7756 63.25 46.557 30.3833 46.925 20.097C47.2011 9.81243 39.0863 1.25396 28.7263 0.895136ZM28.0084 24.988C23.3712 24.8445 19.8199 21.0336 19.8936 16.4296C20.0408 11.8274 23.8865 8.30353 28.5237 8.37529C33.0872 8.59059 36.6941 12.4034 36.5653 17.0055C36.4181 21.5359 32.5719 25.1315 28.0084 24.988Z" fill="white"/>
<path d="M26.5519 73.2474C28.484 73.2474 30.03 71.7017 30.03 69.7953C30.03 67.8871 28.484 66.3433 26.5519 66.3433C24.6381 66.3433 23.0742 67.8871 23.0742 69.7953C23.0742 71.7017 24.6381 73.2474 26.5519 73.2474Z" fill="white"/>
</svg>
